# xmcd
#
# Track frame offsets:
#	150
#	18992
#	36477
#	47710
#	60440
#	73375
#	87715
#	102060
#	116905
#	132025
#	145862
#	160702
#	177285
#	188317
#	202895
#	215387
#
# Disc length: 3116 seconds
#
# Revision: 1
# Processed by: cddbd v1.5.1PL0 Copyright (c) Steve Scherf et al.
# Submitted via: audiograbber 1.83.01
#
DISCID=df0c2a10
DTITLE=Perry Foster - Bluesman
DYEAR=1997
DGENRE=Blues
TTITLE0=Catfish Blues
TTITLE1=One Kind Favour
TTITLE2=Wake Up Mama
TTITLE3=Chocolate To The Bone
TTITLE4=Key To The Highway
TTITLE5=Judge Boushay
TTITLE6=Payday
TTITLE7=Brownsville Blues
TTITLE8=Backwater Blues
TTITLE9=Crossroads
TTITLE10=Crow Jane
TTITLE11=Titanic
TTITLE12=Feel Like Going Home
TTITLE13=Walking Blues
TTITLE14=Lost Lover Blues
TTITLE15=You Gotta Move
EXTD=
EXTT0=
EXTT1=
EXTT2=
EXTT3=
EXTT4=
EXTT5=
EXTT6=
EXTT7=
EXTT8=
EXTT9=
EXTT10=
EXTT11=
EXTT12=
EXTT13=
EXTT14=
EXTT15=
PLAYORDER=
